<svg width="82" height="82" viewBox="0 0 82 82" fill="none" xmlns="http://www.w3.org/2000/svg">
<path d="M5.22874 27.6907C5.58526 15.4146 15.4017 5.52295 27.6784 5.18868C36.8345 4.93938 45.1755 4.93639 54.3377 5.1841C66.6078 5.51585 76.4142 15.4055 76.7708 27.6749C76.9049 32.2882 77 36.9802 77 41.0071C77 45.0136 76.9058 49.6786 76.7728 54.2693C76.4165 66.5683 66.5681 76.4165 54.2692 76.7727C49.6761 76.9058 45.0086 77 41 77C36.9914 77 32.3239 76.9058 27.7308 76.7727C15.4319 76.4165 5.58349 66.5683 5.22717 54.2693C5.09417 49.6786 5 45.0136 5 41.0071C5 36.9848 5.09491 32.2989 5.22874 27.6907Z" fill="#577CFF"/>
<path d="M1.32705 23.8128C1.71599 11.5377 11.5239 1.65952 23.7993 1.27948C35.7354 0.909954 46.2719 0.905593 58.2169 1.27398C70.4856 1.65234 80.2835 11.5286 80.6724 23.797C80.8586 29.6701 81 35.8333 81 41.0079C81 46.162 80.8597 52.2969 80.6747 58.149C80.2857 70.4469 70.4467 80.2857 58.1488 80.6746C52.2943 80.8597 46.1564 81 41 81C35.8436 81 29.7057 80.8597 23.8512 80.6746C11.5533 80.2857 1.71431 70.4469 1.32535 58.149C1.14026 52.2969 1 46.162 1 41.0079C1 35.8379 1.14112 29.6811 1.32705 23.8128Z" stroke="#577CFF" stroke-width="2"/>
<path opacity="0.4" d="M52.3481 36.0352C51.5956 36.0352 50.5989 36.0185 49.358 36.0185C46.3316 36.0185 43.8432 33.5135 43.8432 30.4585V25.0985C43.8432 24.6768 43.5049 24.3335 43.0874 24.3335H34.2722C30.16 24.3335 26.8333 27.7102 26.8333 31.8485V49.8068C26.8333 54.1485 30.3184 57.6668 34.6171 57.6668H47.7425C51.8432 57.6668 55.1666 54.3118 55.1666 50.1702V36.7852C55.1666 36.3618 54.83 36.0202 54.4108 36.0218C53.7062 36.0268 52.8613 36.0352 52.3481 36.0352Z" fill="white"/>
<path opacity="0.4" d="M47.8066 25.2789C47.3099 24.7606 46.4382 25.1173 46.4382 25.8356V30.2306C46.4382 32.0739 47.9566 33.5906 49.7999 33.5906C50.9616 33.6039 52.5749 33.6073 53.9449 33.6039C54.6466 33.6023 55.0032 32.7639 54.5166 32.2573C52.7582 30.4289 49.6099 27.1523 47.8066 25.2789Z" fill="white"/>
<path d="M42.5584 42.6425L44.5934 40.6059C45.0784 40.1225 45.0784 39.3375 44.5934 38.8525C44.1084 38.3675 43.3234 38.3675 42.8384 38.8525L40.8034 40.8859L38.7684 38.8525C38.2834 38.3675 37.4967 38.3675 37.0117 38.8525C36.5267 39.3375 36.5267 40.1225 37.0117 40.6059L39.0484 42.6425L37.0117 44.6775C36.5267 45.1625 36.5267 45.9475 37.0117 46.4309C37.255 46.6742 37.5717 46.7959 37.89 46.7959C38.2084 46.7959 38.525 46.6742 38.7684 46.4309L40.8034 44.3975L42.8384 46.4309C43.08 46.6742 43.3984 46.7959 43.7167 46.7959C44.0334 46.7959 44.3517 46.6742 44.5934 46.4309C45.0784 45.9475 45.0784 45.1625 44.5934 44.6775L42.5584 42.6425Z" fill="white"/>
</svg>
