<svg width="82" height="82" viewBox="0 0 82 82" fill="none" xmlns="http://www.w3.org/2000/svg">
<path d="M1.32705 23.8128C1.71599 11.5377 11.5239 1.65952 23.7993 1.27948C35.7354 0.909954 46.2719 0.905593 58.2169 1.27398C70.4856 1.65234 80.2835 11.5286 80.6724 23.797C80.8586 29.6701 81 35.8333 81 41.0079C81 46.162 80.8597 52.2969 80.6747 58.149C80.2857 70.4469 70.4467 80.2857 58.1488 80.6746C52.2943 80.8597 46.1564 81 41 81C35.8436 81 29.7057 80.8597 23.8512 80.6746C11.5533 80.2857 1.71431 70.4469 1.32535 58.149C1.14026 52.2969 1 46.162 1 41.0079C1 35.8379 1.14112 29.6811 1.32705 23.8128Z" stroke="#FFD166" stroke-width="2"/>
<path d="M5.22874 27.6907C5.58526 15.4146 15.4017 5.52295 27.6784 5.18868C36.8345 4.93938 45.1755 4.93639 54.3377 5.1841C66.6078 5.51585 76.4142 15.4055 76.7708 27.6749C76.9049 32.2882 77 36.9802 77 41.0071C77 45.0136 76.9058 49.6786 76.7728 54.2693C76.4165 66.5683 66.5681 76.4165 54.2692 76.7727C49.6761 76.9058 45.0086 77 41 77C36.9914 77 32.3239 76.9058 27.7308 76.7727C15.4319 76.4165 5.58349 66.5683 5.22717 54.2693C5.09417 49.6786 5 45.0136 5 41.0071C5 36.9848 5.09491 32.2989 5.22874 27.6907Z" fill="#FFD166"/>
<path opacity="0.4" d="M28.8712 56.279C28.8496 56.279 28.8296 56.279 28.8062 56.2773C28.2812 56.2507 27.7662 56.1373 27.2762 55.939C24.8646 54.959 23.7012 52.204 24.6796 49.794L36.8812 28.4173C37.3012 27.6573 37.9379 27.0207 38.7146 26.5907C40.9896 25.3307 43.8662 26.159 45.1246 28.4323L57.2462 49.6457C57.5162 50.2807 57.6312 50.7973 57.6596 51.324C57.7246 52.584 57.2946 53.7923 56.4512 54.7273C55.6079 55.6623 54.4496 56.214 53.1912 56.2773L28.9912 56.279H28.8712Z" fill="white"/>
<path fill-rule="evenodd" clip-rule="evenodd" d="M39.5409 37.7015C39.5409 36.8982 40.1959 36.2432 40.9992 36.2432C41.8026 36.2432 42.4576 36.8982 42.4576 37.7015V42.4148C42.4576 43.2198 41.8026 43.8732 40.9992 43.8732C40.1959 43.8732 39.5409 43.2198 39.5409 42.4148V37.7015ZM39.5409 48.1167C39.5409 47.3083 40.1959 46.65 40.9992 46.65C41.8026 46.65 42.4576 47.3 42.4576 48.0983C42.4576 48.92 41.8026 49.575 40.9992 49.575C40.1959 49.575 39.5409 48.92 39.5409 48.1167Z" fill="white"/>
</svg>
