<svg width="82" height="82" viewBox="0 0 82 82" fill="none" xmlns="http://www.w3.org/2000/svg">
<path d="M1.32705 23.8128C1.71599 11.5377 11.5239 1.65952 23.7993 1.27948C35.7354 0.909954 46.2719 0.905593 58.2169 1.27398C70.4856 1.65234 80.2835 11.5286 80.6724 23.797C80.8586 29.6701 81 35.8333 81 41.0079C81 46.162 80.8597 52.2969 80.6747 58.149C80.2857 70.4469 70.4467 80.2857 58.1488 80.6746C52.2943 80.8597 46.1564 81 41 81C35.8436 81 29.7057 80.8597 23.8512 80.6746C11.5533 80.2857 1.71431 70.4469 1.32535 58.149C1.14026 52.2969 1 46.162 1 41.0079C1 35.8379 1.14112 29.6811 1.32705 23.8128Z" stroke="#48BAB4" stroke-width="2"/>
<path d="M5.22874 27.6907C5.58526 15.4146 15.4017 5.52295 27.6784 5.18868C36.8345 4.93938 45.1755 4.93639 54.3377 5.1841C66.6078 5.51585 76.4142 15.4055 76.7708 27.6749C76.9049 32.2882 77 36.9802 77 41.0071C77 45.0136 76.9058 49.6786 76.7728 54.2693C76.4165 66.5683 66.5681 76.4165 54.2692 76.7727C49.6761 76.9058 45.0086 77 41 77C36.9914 77 32.3239 76.9058 27.7308 76.7727C15.4319 76.4165 5.58349 66.5683 5.22717 54.2693C5.09417 49.6786 5 45.0136 5 41.0071C5 36.9848 5.09491 32.2989 5.22874 27.6907Z" fill="#48BAB4"/>
<path opacity="0.4" d="M48.7926 24.3335H33.2223C27.5482 24.3335 24.3334 27.5483 24.3334 33.2224V48.7779C24.3334 54.452 27.5482 57.6668 33.2223 57.6668H48.7926C54.4667 57.6668 57.6667 54.452 57.6667 48.7779V33.2224C57.6667 27.5483 54.4667 24.3335 48.7926 24.3335Z" fill="white"/>
<path d="M33.2812 36.6152C32.5257 36.6152 31.9034 37.2375 31.9034 38.0078V49.4597C31.9034 50.2152 32.5257 50.8375 33.2812 50.8375C34.0516 50.8375 34.6738 50.2152 34.6738 49.4597V38.0078C34.6738 37.2375 34.0516 36.6152 33.2812 36.6152Z" fill="white"/>
<path d="M41.0591 31.1484C40.3035 31.1484 39.6813 31.7707 39.6813 32.541V49.4595C39.6813 50.2151 40.3035 50.8373 41.0591 50.8373C41.8294 50.8373 42.4516 50.2151 42.4516 49.4595V32.541C42.4516 31.7707 41.8294 31.1484 41.0591 31.1484Z" fill="white"/>
<path d="M48.7332 42.6597C47.9628 42.6597 47.3406 43.2819 47.3406 44.0523V49.4597C47.3406 50.2152 47.9628 50.8374 48.7184 50.8374C49.4887 50.8374 50.1109 50.2152 50.1109 49.4597V44.0523C50.1109 43.2819 49.4887 42.6597 48.7332 42.6597Z" fill="white"/>
</svg>
