<?xml version="1.0" standalone="no"?>
<!DOCTYPE svg PUBLIC "-//W3C//DTD SVG 20010904//EN"
 "http://www.w3.org/TR/2001/REC-SVG-20010904/DTD/svg10.dtd">
<svg version="1.0" xmlns="http://www.w3.org/2000/svg"
 width="600.000000pt" height="600.000000pt" viewBox="0 0 600.000000 600.000000"
 preserveAspectRatio="xMidYMid meet">
<metadata>
Created by potrace 1.14, written by Peter Selinger 2001-2017
</metadata>
<g transform="translate(0.000000,600.000000) scale(0.100000,-0.100000)"
fill="#000000" stroke="none">
<path d="M4917 5232 c-14 -16 -17 -43 -17 -168 l0 -150 -38 4 c-79 8 -129 -71
-120 -192 4 -50 9 -63 35 -86 28 -25 29 -28 12 -38 -31 -20 -69 -78 -73 -113
-5 -46 20 -106 62 -146 l34 -33 -36 -40 c-41 -45 -51 -76 -42 -128 8 -50 32
-80 104 -129 l61 -41 -37 0 c-20 1 -45 0 -54 -1 -48 -3 -70 -123 -32 -174 17
-23 54 -44 107 -61 16 -5 17 -18 15 -133 l-3 -127 -34 -9 c-40 -10 -81 -39
-98 -70 -27 -48 -7 -146 32 -161 9 -3 33 -6 53 -6 l37 0 -50 -31 c-61 -39 -82
-60 -100 -102 -25 -61 -6 -127 53 -181 l21 -18 -31 -26 c-17 -14 -39 -44 -49
-67 -34 -74 -20 -140 42 -187 l31 -25 -25 -16 c-33 -21 -46 -62 -43 -134 5
-104 52 -160 126 -150 l39 5 3 -354 c2 -261 6 -356 15 -365 18 -18 71 -15 91
5 15 15 17 63 17 564 l0 547 26 35 c59 78 56 157 -8 230 l-23 26 55 27 c34 17
63 39 75 59 48 79 4 191 -82 204 -32 6 -36 9 -28 25 14 26 12 91 -3 114 -19
28 -18 345 1 368 21 25 26 82 10 114 -14 28 -13 29 10 31 71 6 117 59 117 137
0 45 -4 58 -28 83 -15 16 -48 39 -72 51 -25 12 -45 25 -45 28 0 3 11 15 24 27
31 26 51 99 42 149 -4 21 -21 54 -39 74 l-32 36 0 354 c0 338 -1 356 -20 369
-26 20 -69 17 -88 -4z"/>
<path d="M2618 5185 c-2 -1 -23 -5 -48 -8 -157 -19 -383 -88 -530 -162 -291
-146 -538 -396 -669 -676 -39 -82 -95 -239 -104 -289 -3 -14 -8 -36 -11 -50
-8 -34 -15 -77 -22 -125 -3 -22 -7 -53 -9 -70 -7 -45 -6 -272 0 -335 20 -191
78 -426 140 -567 46 -106 113 -236 156 -305 43 -68 48 -82 48 -135 0 -77 31
-175 81 -252 23 -35 39 -65 37 -67 -5 -5 -17 -7 -87 -19 -25 -4 -52 -9 -60
-10 -8 -1 -40 -5 -70 -9 -97 -11 -151 -15 -360 -31 -41 -3 -91 -8 -110 -10
-19 -2 -62 -7 -95 -10 -73 -7 -143 -24 -151 -37 -5 -7 58 -128 159 -308 11
-19 32 -57 47 -85 70 -130 102 -185 109 -185 4 0 14 13 24 29 28 48 140 182
213 256 151 152 285 243 432 291 41 13 79 24 84 24 29 0 -259 -376 -463 -605
-78 -87 -225 -268 -265 -325 -24 -36 -46 -79 -47 -95 l-2 -29 425 -122 c234
-67 426 -121 427 -120 2 2 -1 26 -7 54 -5 28 -12 70 -15 94 -3 24 -8 61 -11
83 -11 70 -13 457 -4 530 15 111 18 125 44 220 48 179 88 257 143 280 32 14
37 13 73 -10 104 -66 292 -135 410 -150 122 -17 289 -9 398 19 12 3 30 8 40
10 41 10 172 61 237 93 233 114 437 176 655 198 273 28 512 258 555 535 6 41
7 92 5 250 -2 197 17 335 85 614 49 203 52 341 11 554 -25 128 -130 323 -247
457 -278 319 -688 530 -1164 600 -76 11 -476 20 -487 10z"/>
<path d="M4020 1406 c0 -2 8 -10 18 -17 15 -13 16 -12 3 4 -13 16 -21 21 -21
13z"/>
<path d="M3390 1376 c0 -2 8 -10 18 -17 15 -13 16 -12 3 4 -13 16 -21 21 -21
13z"/>
</g>
</svg>
